<?xml version="1.0" standalone="no"?>
<!DOCTYPE svg PUBLIC "-//W3C//DTD SVG 20010904//EN"
 "http://www.w3.org/TR/2001/REC-SVG-20010904/DTD/svg10.dtd">
<svg version="1.0" xmlns="http://www.w3.org/2000/svg"
 width="239.000000pt" height="291.000000pt" viewBox="0 0 239.000000 291.000000"
 preserveAspectRatio="xMidYMid meet">

<g transform="translate(0.000000,291.000000) scale(0.100000,-0.100000)"
fill="#ff0266" stroke="none">
<path d="M971 2736 l-81 -84 0 -916 0 -916 480 0 c264 0 480 -4 480 -8 0 -4
-28 -36 -63 -70 l-63 -62 -492 0 -492 0 0 899 c0 495 -4 902 -8 905 -10 6
-475 -459 -491 -491 -8 -15 -11 -283 -11 -916 0 -748 2 -896 14 -906 10 -8
174 -11 615 -9 l601 3 87 88 88 87 -613 0 -612 0 0 793 0 793 68 67 c37 37 71
67 75 67 4 0 7 -351 7 -780 l0 -780 617 0 617 0 243 242 c134 133 243 246 243
250 0 5 -272 8 -605 8 l-605 0 0 904 c0 498 -4 907 -9 910 -4 3 -45 -32 -90
-78z"/>
</g>
</svg>
